<svg width="26" height="22" viewBox="0 0 26 22" fill="none" xmlns="http://www.w3.org/2000/svg">
<path d="M18.7625 0.00356891C18.5432 0.0505808 18.3477 0.173647 18.2104 0.350989C18.0731 0.528331 18.003 0.748513 18.0125 0.972569V19.9726C17.9902 20.1085 17.9978 20.2477 18.0346 20.3804C18.0715 20.5131 18.1368 20.6362 18.226 20.7412C18.3152 20.8462 18.4261 20.9305 18.5511 20.9884C18.6761 21.0462 18.8122 21.0762 18.95 21.0762C19.0877 21.0762 19.2239 21.0462 19.3489 20.9884C19.4739 20.9305 19.5848 20.8462 19.674 20.7412C19.7632 20.6362 19.8285 20.5131 19.8654 20.3804C19.9022 20.2477 19.9098 20.1085 19.8875 19.9726V0.972569C19.8907 0.839015 19.8656 0.706293 19.814 0.583068C19.7624 0.459843 19.6854 0.348887 19.588 0.257442C19.4907 0.165998 19.3751 0.0961221 19.2488 0.0523768C19.1226 0.00863142 18.9886 -0.00799988 18.8555 0.00356891C18.8245 0.00205063 18.7935 0.00205063 18.7625 0.00356891ZM6.7625 1.00357C6.54323 1.05058 6.34765 1.17365 6.21039 1.35099C6.07313 1.52833 6.00303 1.74851 6.0125 1.97257V18.9726C5.99023 19.1085 5.99778 19.2477 6.03465 19.3804C6.07151 19.5131 6.13679 19.6362 6.22598 19.7412C6.31516 19.8462 6.42611 19.9305 6.55113 19.9884C6.67615 20.0462 6.81225 20.0762 6.95 20.0762C7.08775 20.0762 7.22385 20.0462 7.34887 19.9884C7.47389 19.9305 7.58484 19.8462 7.67402 19.7412C7.76321 19.6362 7.82849 19.5131 7.86535 19.3804C7.90222 19.2477 7.90977 19.1085 7.8875 18.9726V1.97257C7.89067 1.83901 7.86564 1.70629 7.81404 1.58307C7.76245 1.45984 7.68544 1.34889 7.58805 1.25744C7.49066 1.166 7.37508 1.09612 7.24885 1.05238C7.12262 1.00863 6.98859 0.992 6.8555 1.00357C6.82452 1.00205 6.79348 1.00205 6.7625 1.00357ZM15.7625 4.00357C15.5432 4.05058 15.3477 4.17365 15.2104 4.35099C15.0731 4.52833 15.003 4.74851 15.0125 4.97257V15.9726C14.9897 16.1087 14.9969 16.2481 15.0335 16.3812C15.0701 16.5143 15.1353 16.6378 15.2245 16.7431C15.3137 16.8484 15.4247 16.933 15.5499 16.9911C15.6751 17.0491 15.8115 17.0792 15.9495 17.0792C16.0875 17.0792 16.2239 17.0491 16.3491 16.9911C16.4743 16.933 16.5853 16.8484 16.6745 16.7431C16.7637 16.6378 16.8289 16.5143 16.8655 16.3812C16.9021 16.2481 16.9093 16.1087 16.8865 15.9726V4.97257C16.8896 4.8392 16.8647 4.70666 16.8132 4.58358C16.7617 4.46051 16.6849 4.34966 16.5877 4.25824C16.4905 4.16683 16.3752 4.09691 16.2492 4.05303C16.1232 4.00915 15.9894 3.9923 15.8565 4.00357C15.8249 4.00198 15.7941 4.00198 15.7625 4.00357ZM3.7625 5.00357C3.54323 5.05058 3.34765 5.17365 3.21039 5.35099C3.07313 5.52833 3.00303 5.74851 3.0125 5.97257V14.9726C2.98975 15.1087 2.99692 15.2481 3.03353 15.3812C3.07014 15.5143 3.1353 15.6378 3.22449 15.7431C3.31367 15.8484 3.42472 15.933 3.54993 15.9911C3.67514 16.0491 3.81149 16.0792 3.9495 16.0792C4.08751 16.0792 4.22386 16.0491 4.34907 15.9911C4.47428 15.933 4.58533 15.8484 4.67451 15.7431C4.7637 15.6378 4.82886 15.5143 4.86547 15.3812C4.90208 15.2481 4.90925 15.1087 4.8865 14.9726V5.97257C4.88965 5.8392 4.86466 5.70666 4.81319 5.58358C4.76171 5.46051 4.68488 5.34966 4.58771 5.25824C4.49055 5.16683 4.37522 5.09691 4.24923 5.05303C4.12325 5.00915 3.98943 4.9923 3.8565 5.00357C3.82485 5.00198 3.79415 5.00198 3.7625 5.00357ZM9.7625 6.00357C9.54323 6.05058 9.34765 6.17365 9.21039 6.35099C9.07313 6.52833 9.00303 6.74851 9.0125 6.97257V13.9726C8.98975 14.1087 8.99692 14.2481 9.03353 14.3812C9.07014 14.5143 9.1353 14.6378 9.22449 14.7431C9.31367 14.8484 9.42472 14.933 9.54993 14.9911C9.67514 15.0491 9.81149 15.0792 9.9495 15.0792C10.0875 15.0792 10.2239 15.0491 10.3491 14.9911C10.4743 14.933 10.5853 14.8484 10.6745 14.7431C10.7637 14.6378 10.8289 14.5143 10.8655 14.3812C10.9021 14.2481 10.9093 14.1087 10.8865 13.9726V6.97257C10.8896 6.8392 10.8647 6.70666 10.8132 6.58359C10.7617 6.46051 10.6849 6.34966 10.5877 6.25824C10.4905 6.16683 10.3752 6.09691 10.2492 6.05303C10.1232 6.00915 9.98943 5.9923 9.8565 6.00357C9.82485 6.00198 9.79415 6.00198 9.7625 6.00357ZM21.7625 6.00357C21.5432 6.05058 21.3477 6.17365 21.2104 6.35099C21.0731 6.52833 21.003 6.74851 21.0125 6.97257V13.9726C20.9902 14.1085 20.9978 14.2477 21.0346 14.3804C21.0715 14.5131 21.1368 14.6362 21.226 14.7412C21.3152 14.8462 21.4261 14.9305 21.5511 14.9884C21.6761 15.0462 21.8122 15.0762 21.95 15.0762C22.0877 15.0762 22.2239 15.0462 22.3489 14.9884C22.4739 14.9305 22.5848 14.8462 22.674 14.7412C22.7632 14.6362 22.8285 14.5131 22.8654 14.3804C22.9022 14.2477 22.9098 14.1085 22.8875 13.9726V6.97257C22.8907 6.83901 22.8656 6.70629 22.814 6.58307C22.7624 6.45984 22.6854 6.34889 22.588 6.25744C22.4907 6.166 22.3751 6.09612 22.2488 6.05238C22.1226 6.00863 21.9886 5.992 21.8555 6.00357C21.8245 6.00205 21.7935 6.00205 21.7625 6.00357ZM0.7625 8.00357C0.543227 8.05058 0.347654 8.17365 0.210393 8.35099C0.0731314 8.52833 0.00303191 8.74851 0.0125 8.97257V11.9726C-0.00977242 12.1085 -0.00221586 12.2477 0.0346459 12.3804C0.0715077 12.5131 0.136793 12.6362 0.225976 12.7412C0.315159 12.8462 0.426106 12.9305 0.551126 12.9884C0.676147 13.0462 0.812249 13.0762 0.95 13.0762C1.08775 13.0762 1.22385 13.0462 1.34887 12.9884C1.47389 12.9305 1.58484 12.8462 1.67402 12.7412C1.76321 12.6362 1.82849 12.5131 1.86535 12.3804C1.90222 12.2477 1.90977 12.1085 1.8875 11.9726V8.97257C1.89067 8.83902 1.86564 8.70629 1.81404 8.58307C1.76245 8.45984 1.68544 8.34889 1.58805 8.25744C1.49066 8.166 1.37508 8.09612 1.24885 8.05238C1.12262 8.00863 0.98859 7.992 0.8555 8.00357C0.824186 8.00202 0.792814 8.00202 0.7615 8.00357H0.7625ZM12.7625 8.00357C12.5432 8.05058 12.3477 8.17365 12.2104 8.35099C12.0731 8.52833 12.003 8.74851 12.0125 8.97257V11.9726C11.9897 12.1087 11.9969 12.2481 12.0335 12.3812C12.0701 12.5143 12.1353 12.6378 12.2245 12.7431C12.3137 12.8484 12.4247 12.933 12.5499 12.9911C12.6751 13.0491 12.8115 13.0792 12.9495 13.0792C13.0875 13.0792 13.2239 13.0491 13.3491 12.9911C13.4743 12.933 13.5853 12.8484 13.6745 12.7431C13.7637 12.6378 13.8289 12.5143 13.8655 12.3812C13.9021 12.2481 13.9093 12.1087 13.8865 11.9726V8.97257C13.8896 8.8392 13.8647 8.70666 13.8132 8.58359C13.7617 8.46051 13.6849 8.34966 13.5877 8.25824C13.4905 8.16683 13.3752 8.09691 13.2492 8.05303C13.1232 8.00915 12.9894 7.9923 12.8565 8.00357C12.8249 8.00199 12.7941 8.00199 12.7625 8.00357ZM24.7625 8.00357C24.5432 8.05058 24.3477 8.17365 24.2104 8.35099C24.0731 8.52833 24.003 8.74851 24.0125 8.97257V11.9726C23.9902 12.1085 23.9978 12.2477 24.0346 12.3804C24.0715 12.5131 24.1368 12.6362 24.226 12.7412C24.3152 12.8462 24.4261 12.9305 24.5511 12.9884C24.6761 13.0462 24.8122 13.0762 24.95 13.0762C25.0877 13.0762 25.2239 13.0462 25.3489 12.9884C25.4739 12.9305 25.5848 12.8462 25.674 12.7412C25.7632 12.6362 25.8285 12.5131 25.8654 12.3804C25.9022 12.2477 25.9098 12.1085 25.8875 11.9726V8.97257C25.8907 8.83902 25.8656 8.70629 25.814 8.58307C25.7624 8.45984 25.6854 8.34889 25.588 8.25744C25.4907 8.166 25.3751 8.09612 25.2488 8.05238C25.1226 8.00863 24.9886 7.992 24.8555 8.00357C24.8245 8.00205 24.7935 8.00205 24.7625 8.00357Z" fill="black"/>
</svg>
