<svg width="430" height="401" viewBox="0 0 430 401" fill="none" xmlns="http://www.w3.org/2000/svg">
<g clip-path="url(#clip0_5_561)">
<path d="M145.561 180.321C127.736 180.321 110.31 175.033 95.4892 165.126C80.6679 155.219 69.1161 141.138 62.2946 124.663C55.4731 108.189 53.6883 90.0604 57.1659 72.571C60.6435 55.0816 69.2272 39.0165 81.8317 26.4074C94.4361 13.7982 110.495 5.2113 127.978 1.73244C145.461 -1.74641 163.583 0.0390677 180.051 6.86309C196.52 13.6871 210.595 25.2432 220.499 40.07C230.402 54.8968 235.688 72.3283 235.688 90.1604C235.661 114.064 226.157 136.981 209.26 153.883C192.364 170.786 169.456 180.294 145.561 180.321ZM145.561 1.41989C128.016 1.41989 110.866 6.62443 96.2777 16.3754C81.6898 26.1263 70.32 39.9857 63.6059 56.2009C56.8918 72.4161 55.1351 90.2588 58.5579 107.473C61.9807 124.687 70.4293 140.499 82.8353 152.909C95.2413 165.32 111.047 173.772 128.255 177.196C145.463 180.62 163.299 178.862 179.508 172.146C195.717 165.429 209.571 154.055 219.319 139.462C229.066 124.869 234.269 107.712 234.269 90.1604C234.269 66.6249 224.923 44.0534 208.287 27.4114C191.651 10.7693 169.088 1.41989 145.561 1.41989Z" fill="#F2F2F2"/>
<path d="M89.0448 93.3926C86.5402 84.2579 106.741 76.4247 112.045 83.7809C112.783 82.7351 115.509 82.0998 116.759 82.4207C117.984 82.8273 119.115 83.4729 120.088 84.3199C121.499 85.4043 122.962 86.5271 123.828 88.0863C124.7 89.639 124.835 91.7565 123.661 93.1039C122.731 94.1754 119.986 94.8684 118.587 95.1507C117.613 95.3496 116.791 95.51 116.086 95.6255C115.445 94.7018 115.15 93.5819 115.252 92.4622C114.777 92.7827 114.379 93.2043 114.086 93.6968C113.794 94.1894 113.614 94.7406 113.559 95.3111C113.54 95.5485 121.442 124.634 121.442 124.634C120.492 125.174 119.494 125.623 118.459 125.975C116.413 122.846 114.845 119.429 113.809 115.837C113.571 118.239 113.601 120.66 113.899 123.055C114.057 124.398 114.284 125.733 114.579 127.053C105.189 129.08 91.0652 128.413 84.9206 119.789L84.9175 119.682C84.9127 119.342 84.7898 119.014 84.5698 118.754C84.3497 118.494 84.0463 118.319 83.7114 118.259C83.3765 118.198 83.031 118.256 82.7341 118.423C82.4371 118.589 82.2073 118.853 82.0838 119.171C81.9348 119.551 81.7976 119.88 81.6751 120.142C79.8857 113.739 82.2011 106.328 89.0448 93.3926Z" fill="#1E1E1E"/>
<path d="M133.327 385.571L140.324 385.512L143.421 357.887L133.095 357.974L133.327 385.571Z" fill="#C2858E"/>
<path d="M154.367 394.138L143.193 386.557L143.151 381.548L140.748 381.709L133.299 382.223L131.473 382.344L130.148 400.046L135.396 399.998L136.291 395.035L138.726 399.973L152.636 399.857C153.303 399.851 153.951 399.632 154.484 399.233C155.018 398.833 155.41 398.273 155.603 397.634C155.797 396.996 155.781 396.312 155.558 395.683C155.336 395.055 154.918 394.513 154.367 394.138Z" fill="#2F2E41"/>
<path d="M63.565 382.842L70.4821 383.894L77.9193 357.11L67.7101 355.558L63.565 382.842Z" fill="#C2858E"/>
<path d="M82.9801 394.639L73.1493 385.38L73.9016 380.428L71.5035 380.206L64.068 379.532L62.2458 379.362L58.1311 396.629L63.3208 397.415L64.9907 392.657L66.6122 397.918L80.3649 400.011C81.0242 400.111 81.6982 399.997 82.2885 399.687C82.8789 399.377 83.3548 398.886 83.6468 398.287C83.9388 397.687 84.0316 397.01 83.9116 396.353C83.7917 395.697 83.4653 395.096 82.9801 394.639Z" fill="#2F2E41"/>
<path d="M130.11 192.57L149.947 228.111C149.947 228.111 149.119 301.208 151.755 303.92C154.391 306.631 156.778 309.062 154.392 309.04C152.005 309.019 149.116 314.829 149.116 314.829L144.178 369.752H131.729C131.729 369.752 122.969 337.363 124.836 318.893L110.088 251.395C110.088 251.395 99.4923 315.227 97.5827 317.137C95.6732 319.047 94.5213 319.034 96.5294 320.951C98.5375 322.868 96.5294 327.204 96.5294 327.204L75.5961 370.666L64.2416 369.233C64.2416 369.233 66.2101 333.752 73.0648 318.52V246.537C72.5485 252.709 96.6988 190.243 81.9305 194.932C86.6028 193.449 130.11 192.57 130.11 192.57Z" fill="#1E1E1E"/>
<path d="M113.249 124.798L93.0837 120.519L89.0797 128.582L75.5961 136.391C75.5961 136.391 84.2875 171.941 84.238 176.941C84.1121 189.635 63.8084 218.092 79.1444 215.902C94.4804 213.713 97.5956 204.544 102.519 205.993C122.831 211.975 146.97 211.341 138.756 203.124C130.542 194.906 132.377 140.205 132.377 140.205L116.467 132.684L113.249 124.798Z" fill="#434343"/>
<path d="M75.2148 253.902C76.025 252.935 76.4263 251.691 76.3332 250.433C76.2401 249.175 75.66 248.003 74.7163 247.166C74.5218 246.999 74.3138 246.848 74.0945 246.716L77.4662 230.162L69.6716 225.495L67.5036 248.671C67.0239 249.624 66.873 250.708 67.0742 251.756C67.2755 252.803 67.8177 253.754 68.6162 254.461C69.5416 255.264 70.7481 255.667 71.9702 255.58C73.1924 255.493 74.33 254.925 75.133 253.999C75.1607 253.967 75.188 253.935 75.2148 253.902Z" fill="#C2858E"/>
<path d="M70.9094 176.446L71.5578 146.281C71.5985 144.385 72.0181 142.516 72.7919 140.785C73.5658 139.053 74.6781 137.494 76.0635 136.199C77.4489 134.904 79.0793 133.9 80.8587 133.245C82.638 132.591 84.5304 132.299 86.4243 132.387C92.5857 132.675 90.9441 135.138 92.5807 141.087C95.2402 150.758 96.2631 156.349 95.6213 157.702C95.404 158.161 95.1751 158.6 94.9548 159.022C93.8204 161.199 93.0009 162.771 95.0838 164.277C95.9076 164.823 96.8049 165.247 97.7485 165.539C98.6886 165.874 99.368 166.115 99.4157 166.647C99.4616 167.161 98.8809 167.695 97.2728 168.616C92.9549 171.088 89.2106 185.863 89.174 186.009L76.6443 238.589L66.6628 238.093L70.9094 176.446Z" fill="#434343"/>
<path d="M196.506 217.659C195.258 217.482 194.128 216.824 193.357 215.825C192.586 214.827 192.235 213.567 192.379 212.314C192.412 212.06 192.466 211.809 192.541 211.563L178.977 201.499L181.661 192.817L198.751 208.614C199.744 209.002 200.581 209.708 201.13 210.622C201.68 211.536 201.912 212.606 201.789 213.665C201.714 214.268 201.521 214.849 201.221 215.376C200.921 215.904 200.52 216.367 200.041 216.74C199.562 217.112 199.015 217.387 198.43 217.547C197.845 217.708 197.234 217.752 196.632 217.677C196.59 217.671 196.548 217.666 196.506 217.659Z" fill="#C2858E"/>
<path d="M192.313 200.18L185.216 207.22L140.78 176.468C140.655 176.383 128.002 167.891 123.138 168.937C121.327 169.327 120.539 169.318 120.229 168.904C119.909 168.477 120.254 167.843 120.73 166.966C121.237 166.118 121.621 165.202 121.87 164.246C122.414 161.733 120.754 161.111 118.457 160.25C118.011 160.082 117.547 159.909 117.079 159.713C115.698 159.134 112.726 154.291 108.246 145.317C105.491 139.796 102.625 139.06 107.017 134.728C108.368 133.397 109.971 132.35 111.732 131.648C113.494 130.946 115.378 130.604 117.273 130.641C119.169 130.679 121.038 131.096 122.77 131.867C124.502 132.638 126.062 133.749 127.359 135.132L147.985 157.145L192.313 200.18Z" fill="#434343"/>
<path d="M104.741 120.217C113.828 120.217 121.193 112.848 121.193 103.759C121.193 94.6691 113.828 87.3005 104.741 87.3005C95.6551 87.3005 88.2893 94.6691 88.2893 103.759C88.2893 112.848 95.6551 120.217 104.741 120.217Z" fill="#C2858E"/>
<path d="M80.0653 94.6758C77.5607 85.5411 97.7611 77.7079 103.066 85.0641C103.803 84.0183 106.529 83.383 107.78 83.7039C109.004 84.1105 110.136 84.7561 111.109 85.6031C112.52 86.6875 113.982 87.8103 114.848 89.3695C115.72 90.9222 115.855 93.0397 114.681 94.3871C113.751 95.4586 111.006 96.1516 109.608 96.4339C108.633 96.6328 107.812 96.7932 107.106 96.9087C106.466 95.9851 106.17 94.8651 106.273 93.7455C105.798 94.0659 105.4 94.4875 105.107 94.9801C104.814 95.4726 104.634 96.0239 104.579 96.5943C104.56 96.8317 112.462 125.917 112.462 125.917C111.513 126.457 110.514 126.906 109.48 127.258C107.433 124.129 105.866 120.712 104.83 117.12C104.591 119.522 104.621 121.943 104.919 124.338C105.078 125.682 105.305 127.016 105.599 128.336C96.2091 130.363 82.0857 129.696 75.9411 121.073L75.938 120.965C75.9332 120.625 75.8103 120.297 75.5902 120.037C75.3702 119.778 75.0667 119.603 74.7319 119.542C74.397 119.482 74.0515 119.539 73.7546 119.706C73.4577 119.872 73.2278 120.137 73.1044 120.454C72.9553 120.834 72.8181 121.164 72.6956 121.425C70.9062 115.022 73.2216 107.611 80.0653 94.6758Z" fill="#1E1E1E"/>
<path d="M38.5054 388.443C38.1755 388.459 37.849 388.372 37.57 388.195C37.291 388.019 37.073 387.76 36.9457 387.456C36.8183 387.151 36.7876 386.814 36.8578 386.491C36.928 386.169 37.0958 385.875 37.3382 385.651L37.4486 385.212C37.434 385.177 37.4194 385.142 37.4047 385.107C37.0724 384.322 36.5156 383.652 35.8042 383.182C35.0927 382.713 34.2584 382.464 33.4061 382.467C32.5537 382.47 31.7213 382.725 31.0134 383.2C30.3055 383.675 29.7536 384.349 29.4272 385.136C28.1224 388.28 26.4612 391.429 26.0522 394.753C25.872 396.222 25.948 397.712 26.2768 399.155C23.2122 392.467 21.6209 385.199 21.6106 377.842C21.61 375.996 21.7125 374.152 21.9177 372.317C22.0873 370.813 22.3227 369.32 22.6237 367.837C24.2662 359.793 27.7928 352.253 32.9138 345.837C35.3924 344.484 37.3968 342.404 38.6571 339.876C39.1136 338.968 39.4363 337.998 39.615 336.997C39.3354 337.033 38.5608 332.774 38.7717 332.512C38.3821 331.921 37.6847 331.627 37.2591 331.049C35.1427 328.179 32.2268 328.68 30.7045 332.581C27.4527 334.223 27.4212 336.946 29.4165 339.564C30.6859 341.23 30.8603 343.485 31.9742 345.268C31.8595 345.415 31.7404 345.557 31.6258 345.704C29.5311 348.399 27.7054 351.292 26.1749 354.343C26.5471 350.925 26.1029 347.468 24.8788 344.255C23.6381 341.261 21.3128 338.74 19.265 336.151C18.7234 335.456 17.9879 334.937 17.1515 334.66C16.315 334.383 15.4152 334.36 14.5658 334.594C13.7163 334.828 12.9554 335.309 12.3791 335.976C11.8028 336.643 11.4371 337.466 11.3282 338.34C11.324 338.378 11.3199 338.417 11.3159 338.455C11.6201 338.626 11.9178 338.809 12.2091 339.001C12.5751 339.246 12.8586 339.595 13.0227 340.004C13.1867 340.413 13.2235 340.861 13.1283 341.291C13.0331 341.721 12.8103 342.112 12.4891 342.413C12.168 342.714 11.7634 342.911 11.3284 342.978L11.2838 342.985C11.3922 344.082 11.5837 345.168 11.8568 346.236C9.22976 356.399 14.9013 360.101 22.9995 360.267C23.1782 360.359 23.3525 360.45 23.5312 360.538C21.9935 364.897 21.029 369.438 20.6619 374.046C20.454 376.765 20.4663 379.496 20.6985 382.212L20.6848 382.116C20.0981 379.095 18.4871 376.369 16.1241 374.399C12.6144 371.515 7.65582 370.453 3.86948 368.134C3.46708 367.876 2.99917 367.738 2.52097 367.737C2.04277 367.736 1.57422 367.871 1.17057 368.128C0.766908 368.384 0.445 368.751 0.242796 369.184C0.0405916 369.618 -0.0334781 370.1 0.0293435 370.574L0.0448283 370.676C0.60925 370.906 1.15881 371.171 1.69029 371.469C1.99445 371.641 2.29219 371.823 2.5835 372.015C2.94946 372.26 3.23303 372.61 3.39705 373.018C3.56107 373.427 3.59787 373.875 3.50267 374.305C3.40747 374.735 3.1847 375.126 2.86352 375.427C2.54235 375.728 2.13774 375.925 1.70275 375.992L1.65818 375.999C1.6261 376.004 1.59856 376.008 1.56654 376.013C2.53095 378.316 3.88454 380.437 5.568 382.281C7.2106 391.153 14.2656 391.995 21.8123 389.411H21.8169C22.6449 393.011 23.8446 396.514 25.3967 399.866H38.1849C38.2308 399.724 38.272 399.577 38.3133 399.435C37.1296 399.509 35.9412 399.438 34.7747 399.224C35.7235 398.059 36.6723 396.885 37.6211 395.721C37.6423 395.699 37.6622 395.676 37.6808 395.652C38.162 395.056 38.6479 394.464 39.1292 393.868L39.1294 393.867C39.1551 392.04 38.9451 390.217 38.5054 388.443Z" fill="#F2F2F2"/>
<path d="M0.473698 400.155C0.473367 400.266 0.494979 400.376 0.537305 400.479C0.57963 400.582 0.641839 400.675 0.720329 400.753C0.798819 400.832 0.892046 400.894 0.99466 400.937C1.09727 400.979 1.20724 401.001 1.31824 401H181.068C181.292 401 181.507 400.911 181.665 400.753C181.824 400.594 181.913 400.379 181.913 400.155C181.913 399.931 181.824 399.716 181.665 399.558C181.507 399.4 181.292 399.311 181.068 399.311H1.31824C1.20724 399.31 1.09727 399.332 0.99466 399.374C0.892047 399.416 0.798818 399.479 0.720329 399.557C0.64184 399.636 0.579632 399.729 0.537305 399.832C0.494977 399.934 0.473371 400.044 0.473698 400.155Z" fill="#CCCCCC"/>
<path d="M393.253 40.551H211.919C209.766 40.551 207.635 40.9751 205.647 41.7991C203.658 42.6231 201.851 43.8308 200.329 45.3533C198.807 46.8758 197.6 48.6833 196.776 50.6726C195.953 52.6619 195.529 54.794 195.529 56.9471V330.842C195.529 335.191 197.256 339.361 200.329 342.436C203.403 345.511 207.572 347.238 211.919 347.238H393.253C397.6 347.238 401.769 345.511 404.843 342.436C407.917 339.361 409.643 335.191 409.643 330.842C433.698 237.761 434.438 146.408 409.643 56.9471C409.643 52.5986 407.917 48.4282 404.843 45.3533C401.769 42.2785 397.6 40.551 393.253 40.551ZM217.427 309.29C217.427 309.994 217.147 310.669 216.65 311.167C216.152 311.665 215.477 311.945 214.773 311.945H207.915C207.211 311.945 206.536 311.665 206.038 311.167C205.541 310.669 205.261 309.994 205.261 309.29V302.429C205.261 301.725 205.541 301.05 206.038 300.552C206.536 300.054 207.211 299.775 207.915 299.775H214.773C215.477 299.775 216.152 300.054 216.65 300.552C217.147 301.05 217.427 301.725 217.427 302.429V309.29ZM217.427 282.212C217.427 282.916 217.147 283.591 216.65 284.089C216.152 284.587 215.477 284.866 214.773 284.866H207.915C207.211 284.866 206.536 284.587 206.038 284.089C205.541 283.591 205.261 282.916 205.261 282.212V275.351C205.261 275.002 205.33 274.657 205.463 274.335C205.597 274.013 205.792 273.72 206.038 273.474C206.285 273.227 206.577 273.032 206.899 272.898C207.221 272.765 207.566 272.696 207.915 272.696H214.773C215.122 272.696 215.467 272.765 215.789 272.898C216.111 273.032 216.403 273.227 216.65 273.474C216.896 273.72 217.092 274.013 217.225 274.335C217.358 274.657 217.427 275.002 217.427 275.351V282.212ZM217.427 255.133C217.427 255.837 217.147 256.512 216.65 257.01C216.152 257.508 215.477 257.788 214.773 257.788H207.915C207.211 257.788 206.536 257.508 206.038 257.01C205.541 256.512 205.261 255.837 205.261 255.133V248.272C205.261 247.568 205.541 246.893 206.038 246.395C206.536 245.897 207.211 245.618 207.915 245.618H214.773C215.477 245.618 216.152 245.897 216.65 246.395C217.147 246.893 217.427 247.568 217.427 248.272V255.133ZM217.427 228.055C217.427 228.759 217.147 229.434 216.65 229.932C216.152 230.43 215.477 230.709 214.773 230.709H207.915C207.211 230.709 206.536 230.43 206.038 229.932C205.541 229.434 205.261 228.759 205.261 228.055V221.193C205.261 220.489 205.541 219.814 206.038 219.317C206.536 218.819 207.211 218.539 207.915 218.539H214.773C215.477 218.539 216.152 218.819 216.65 219.317C217.147 219.814 217.427 220.489 217.427 221.193V228.055ZM217.427 200.976C217.427 201.68 217.147 202.355 216.65 202.853C216.152 203.351 215.477 203.631 214.773 203.631H207.915C207.211 203.631 206.536 203.351 206.038 202.853C205.541 202.355 205.261 201.68 205.261 200.976V194.115C205.261 193.411 205.541 192.736 206.038 192.238C206.536 191.74 207.211 191.461 207.915 191.461H214.773C215.477 191.461 216.152 191.74 216.65 192.238C217.147 192.736 217.427 193.411 217.427 194.115V200.976ZM217.427 173.898C217.427 174.602 217.147 175.277 216.65 175.775C216.152 176.272 215.477 176.552 214.773 176.552H207.915C207.211 176.552 206.536 176.272 206.038 175.775C205.541 175.277 205.261 174.602 205.261 173.898V167.036C205.261 166.332 205.541 165.657 206.038 165.159C206.536 164.662 207.211 164.382 207.915 164.382H214.773C215.477 164.382 216.152 164.662 216.65 165.159C217.147 165.657 217.427 166.332 217.427 167.036V173.898ZM217.427 146.819C217.427 147.523 217.147 148.198 216.65 148.696C216.152 149.194 215.477 149.474 214.773 149.474H207.915C207.211 149.474 206.536 149.194 206.038 148.696C205.541 148.198 205.261 147.523 205.261 146.819V139.958C205.261 139.254 205.541 138.579 206.038 138.081C206.536 137.583 207.211 137.304 207.915 137.304H214.773C215.477 137.304 216.152 137.583 216.65 138.081C217.147 138.579 217.427 139.254 217.427 139.958V146.819ZM217.427 119.741C217.427 120.445 217.147 121.12 216.65 121.618C216.152 122.115 215.477 122.395 214.773 122.395H207.915C207.211 122.395 206.536 122.115 206.038 121.618C205.541 121.12 205.261 120.445 205.261 119.741V112.879C205.261 112.175 205.541 111.5 206.038 111.002C206.536 110.505 207.211 110.225 207.915 110.225H214.773C215.477 110.225 216.152 110.505 216.65 111.002C217.147 111.5 217.427 112.175 217.427 112.879V119.741ZM217.427 92.6622C217.427 93.3662 217.147 94.0413 216.65 94.5391C216.152 95.0369 215.477 95.3166 214.773 95.3166H207.915C207.211 95.3166 206.536 95.0369 206.038 94.5391C205.541 94.0413 205.261 93.3662 205.261 92.6622V85.8009C205.261 85.0969 205.541 84.4217 206.038 83.9239C206.536 83.4261 207.211 83.1465 207.915 83.1465H214.773C215.477 83.1465 216.152 83.4261 216.65 83.9239C217.147 84.4217 217.427 85.0969 217.427 85.8009V92.6622Z" fill="#F2F2F2"/>
<path d="M215.879 55.1553H206.809C205.954 55.1553 205.261 55.8485 205.261 56.7037V65.777C205.261 66.6321 205.954 67.3254 206.809 67.3254H215.879C216.734 67.3254 217.427 66.6321 217.427 65.777V56.7037C217.427 55.8485 216.734 55.1553 215.879 55.1553Z" fill="#6C63FF"/>
<path d="M374.363 89.9413H241.93C241.742 89.9413 241.562 89.8665 241.429 89.7334C241.296 89.6003 241.221 89.4197 241.221 89.2314C241.221 89.0431 241.296 88.8626 241.429 88.7294C241.562 88.5963 241.742 88.5215 241.93 88.5215H374.363C374.551 88.5215 374.732 88.5963 374.865 88.7294C374.998 88.8626 375.073 89.0431 375.073 89.2314C375.073 89.4197 374.998 89.6003 374.865 89.7334C374.732 89.8665 374.551 89.9413 374.363 89.9413Z" fill="#E6E6E6"/>
<path d="M374.363 63.1672H336.65C336.461 63.1672 336.281 63.0924 336.148 62.9592C336.015 62.8261 335.94 62.6455 335.94 62.4572C335.94 62.269 336.015 62.0884 336.148 61.9552C336.281 61.8221 336.461 61.7473 336.65 61.7473H374.363C374.551 61.7473 374.732 61.8221 374.865 61.9552C374.998 62.0884 375.073 62.269 375.073 62.4572C375.073 62.6455 374.998 62.8261 374.865 62.9592C374.732 63.0924 374.551 63.1672 374.363 63.1672Z" fill="#E6E6E6"/>
<path d="M374.363 116.716H241.93C241.742 116.716 241.562 116.641 241.429 116.508C241.296 116.375 241.221 116.194 241.221 116.006C241.221 115.818 241.296 115.637 241.429 115.504C241.562 115.371 241.742 115.296 241.93 115.296H374.363C374.551 115.296 374.732 115.371 374.865 115.504C374.998 115.637 375.073 115.818 375.073 116.006C375.073 116.194 374.998 116.375 374.865 116.508C374.732 116.641 374.551 116.716 374.363 116.716Z" fill="#E6E6E6"/>
<path d="M374.363 143.49H241.93C241.742 143.49 241.562 143.415 241.429 143.282C241.296 143.149 241.221 142.969 241.221 142.78C241.221 142.592 241.296 142.411 241.429 142.278C241.562 142.145 241.742 142.07 241.93 142.07H374.363C374.551 142.07 374.732 142.145 374.865 142.278C374.998 142.411 375.073 142.592 375.073 142.78C375.073 142.969 374.998 143.149 374.865 143.282C374.732 143.415 374.551 143.49 374.363 143.49Z" fill="#E6E6E6"/>
<path d="M374.363 170.264H241.93C241.742 170.264 241.562 170.19 241.429 170.056C241.296 169.923 241.221 169.743 241.221 169.554C241.221 169.366 241.296 169.186 241.429 169.052C241.562 168.919 241.742 168.844 241.93 168.844H374.363C374.551 168.844 374.732 168.919 374.865 169.052C374.998 169.186 375.073 169.366 375.073 169.554C375.073 169.743 374.998 169.923 374.865 170.056C374.732 170.19 374.551 170.264 374.363 170.264Z" fill="#E6E6E6"/>
<path d="M374.363 197.039H241.93C241.742 197.039 241.562 196.964 241.429 196.831C241.296 196.698 241.221 196.517 241.221 196.329C241.221 196.141 241.296 195.96 241.429 195.827C241.562 195.694 241.742 195.619 241.93 195.619H374.363C374.551 195.619 374.732 195.694 374.865 195.827C374.998 195.96 375.073 196.141 375.073 196.329C375.073 196.517 374.998 196.698 374.865 196.831C374.732 196.964 374.551 197.039 374.363 197.039Z" fill="#E6E6E6"/>
<path d="M374.363 223.813H241.93C241.742 223.813 241.562 223.738 241.429 223.605C241.296 223.472 241.221 223.291 241.221 223.103C241.221 222.914 241.296 222.734 241.429 222.601C241.562 222.468 241.742 222.393 241.93 222.393H374.363C374.551 222.393 374.732 222.468 374.865 222.601C374.998 222.734 375.073 222.914 375.073 223.103C375.073 223.291 374.998 223.472 374.865 223.605C374.732 223.738 374.551 223.813 374.363 223.813Z" fill="#E6E6E6"/>
<path d="M374.363 250.587H241.93C241.742 250.587 241.562 250.513 241.429 250.379C241.296 250.246 241.221 250.066 241.221 249.877C241.221 249.689 241.296 249.509 241.429 249.375C241.562 249.242 241.742 249.167 241.93 249.167H374.363C374.551 249.167 374.732 249.242 374.865 249.375C374.998 249.509 375.073 249.689 375.073 249.877C375.073 250.066 374.998 250.246 374.865 250.379C374.732 250.513 374.551 250.587 374.363 250.587Z" fill="#E6E6E6"/>
<path d="M374.363 277.361H241.93C241.742 277.361 241.562 277.286 241.429 277.153C241.296 277.02 241.221 276.84 241.221 276.651C241.221 276.463 241.296 276.282 241.429 276.149C241.562 276.016 241.742 275.941 241.93 275.941H374.363C374.551 275.941 374.732 276.016 374.865 276.149C374.998 276.282 375.073 276.463 375.073 276.651C375.073 276.84 374.998 277.02 374.865 277.153C374.732 277.286 374.551 277.361 374.363 277.361Z" fill="#E6E6E6"/>
<path d="M374.363 304.136H241.93C241.742 304.136 241.562 304.061 241.429 303.928C241.296 303.795 241.221 303.615 241.221 303.426C241.221 303.238 241.296 303.057 241.429 302.924C241.562 302.791 241.742 302.716 241.93 302.716H374.363C374.551 302.716 374.732 302.791 374.865 302.924C374.998 303.057 375.073 303.238 375.073 303.426C375.073 303.615 374.998 303.795 374.865 303.928C374.732 304.061 374.551 304.136 374.363 304.136Z" fill="#E6E6E6"/>
<path d="M354.73 83.6911H263.396C263.04 83.6917 262.688 83.6221 262.359 83.4864C262.03 83.3506 261.732 83.1514 261.48 82.9C261.228 82.6486 261.029 82.3501 260.892 82.0215C260.756 81.6929 260.686 81.3406 260.686 80.9848C260.686 80.6291 260.756 80.2768 260.892 79.9482C261.029 79.6196 261.228 79.321 261.48 79.0697C261.732 78.8183 262.03 78.6191 262.359 78.4833C262.688 78.3476 263.04 78.278 263.396 78.2786H354.73C355.447 78.2797 356.133 78.5654 356.64 79.0728C357.146 79.5802 357.431 80.2679 357.431 80.9848C357.431 81.7018 357.146 82.3895 356.64 82.8969C356.133 83.4043 355.447 83.6899 354.73 83.6911Z" fill="#CCCCCC"/>
<path d="M354.73 110.465H263.396C262.678 110.465 261.99 110.18 261.483 109.673C260.975 109.165 260.69 108.477 260.69 107.759C260.69 107.041 260.975 106.353 261.483 105.845C261.99 105.338 262.678 105.053 263.396 105.053H354.73C355.447 105.053 356.135 105.338 356.643 105.845C357.15 106.353 357.435 107.041 357.435 107.759C357.435 108.477 357.15 109.165 356.643 109.673C356.135 110.18 355.447 110.465 354.73 110.465Z" fill="#CCCCCC"/>
<path d="M354.73 137.24H263.396C263.04 137.24 262.688 137.171 262.359 137.035C262.03 136.899 261.732 136.7 261.48 136.449C261.228 136.197 261.029 135.899 260.892 135.57C260.756 135.241 260.686 134.889 260.686 134.533C260.686 134.178 260.756 133.825 260.892 133.497C261.029 133.168 261.228 132.87 261.48 132.618C261.732 132.367 262.03 132.168 262.359 132.032C262.688 131.896 263.04 131.827 263.396 131.827H354.73C355.447 131.828 356.133 132.114 356.64 132.621C357.146 133.129 357.431 133.816 357.431 134.533C357.431 135.25 357.146 135.938 356.64 136.445C356.133 136.953 355.447 137.239 354.73 137.24Z" fill="#CCCCCC"/>
<path d="M354.73 164.014H263.396C262.678 164.014 261.99 163.729 261.483 163.221C260.975 162.714 260.69 162.025 260.69 161.308C260.69 160.59 260.975 159.901 261.483 159.394C261.99 158.886 262.678 158.601 263.396 158.601H354.73C355.447 158.601 356.135 158.886 356.643 159.394C357.15 159.901 357.435 160.59 357.435 161.308C357.435 162.025 357.15 162.714 356.643 163.221C356.135 163.729 355.447 164.014 354.73 164.014Z" fill="#CCCCCC"/>
<path d="M354.73 190.788H263.396C263.04 190.789 262.688 190.719 262.359 190.584C262.03 190.448 261.732 190.249 261.48 189.997C261.228 189.746 261.029 189.447 260.892 189.119C260.756 188.79 260.686 188.438 260.686 188.082C260.686 187.726 260.756 187.374 260.892 187.045C261.029 186.717 261.228 186.418 261.48 186.167C261.732 185.915 262.03 185.716 262.359 185.58C262.688 185.445 263.04 185.375 263.396 185.376H354.73C355.447 185.377 356.133 185.663 356.64 186.17C357.146 186.677 357.431 187.365 357.431 188.082C357.431 188.799 357.146 189.487 356.64 189.994C356.133 190.501 355.447 190.787 354.73 190.788Z" fill="#CCCCCC"/>
<path d="M354.73 217.562H263.396C263.04 217.563 262.688 217.493 262.359 217.358C262.03 217.222 261.732 217.023 261.48 216.771C261.228 216.52 261.029 216.221 260.892 215.893C260.756 215.564 260.686 215.212 260.686 214.856C260.686 214.5 260.756 214.148 260.892 213.82C261.029 213.491 261.228 213.192 261.48 212.941C261.732 212.69 262.03 212.49 262.359 212.355C262.688 212.219 263.04 212.149 263.396 212.15H354.73C355.447 212.151 356.133 212.437 356.64 212.944C357.146 213.452 357.431 214.139 357.431 214.856C357.431 215.573 357.146 216.261 356.64 216.768C356.133 217.276 355.447 217.561 354.73 217.562Z" fill="#CCCCCC"/>
<path d="M354.73 244.337H263.396C262.678 244.337 261.99 244.051 261.483 243.544C260.975 243.036 260.69 242.348 260.69 241.63C260.69 240.913 260.975 240.224 261.483 239.717C261.99 239.209 262.678 238.924 263.396 238.924H354.73C355.447 238.924 356.135 239.209 356.643 239.717C357.15 240.224 357.435 240.913 357.435 241.63C357.435 242.348 357.15 243.036 356.643 243.544C356.135 244.051 355.447 244.337 354.73 244.337Z" fill="#CCCCCC"/>
<path d="M354.73 271.111H263.396C263.04 271.112 262.688 271.042 262.359 270.906C262.03 270.771 261.732 270.571 261.48 270.32C261.228 270.069 261.029 269.77 260.892 269.441C260.756 269.113 260.686 268.76 260.686 268.405C260.686 268.049 260.756 267.697 260.892 267.368C261.029 267.039 261.228 266.741 261.48 266.49C261.732 266.238 262.03 266.039 262.359 265.903C262.688 265.767 263.04 265.698 263.396 265.698H354.73C355.447 265.7 356.133 265.985 356.64 266.493C357.146 267 357.431 267.688 357.431 268.405C357.431 269.122 357.146 269.809 356.64 270.317C356.133 270.824 355.447 271.11 354.73 271.111Z" fill="#CCCCCC"/>
<path d="M354.73 297.885H263.396C263.04 297.885 262.689 297.815 262.36 297.679C262.032 297.543 261.734 297.344 261.483 297.093C261.232 296.841 261.032 296.543 260.896 296.215C260.76 295.886 260.69 295.534 260.69 295.179C260.69 294.824 260.76 294.472 260.896 294.143C261.032 293.815 261.232 293.517 261.483 293.265C261.734 293.014 262.032 292.815 262.36 292.679C262.689 292.543 263.04 292.473 263.396 292.473H354.73C355.447 292.473 356.135 292.758 356.643 293.265C357.15 293.773 357.435 294.461 357.435 295.179C357.435 295.897 357.15 296.585 356.643 297.093C356.135 297.6 355.447 297.885 354.73 297.885Z" fill="#CCCCCC"/>
<path d="M272.222 63.4365H248.586C248.398 63.4365 248.217 63.5113 248.084 63.6444C247.951 63.7776 247.876 63.9582 247.876 64.1464C247.876 64.3347 247.951 64.5153 248.084 64.6484C248.217 64.7816 248.398 64.8564 248.586 64.8564H259.694V88.0266C259.694 88.2149 259.769 88.3955 259.902 88.5286C260.035 88.6618 260.216 88.7366 260.404 88.7366C260.592 88.7366 260.773 88.6618 260.906 88.5286C261.039 88.3955 261.114 88.2149 261.114 88.0266V75.969C261.114 73.0218 262.284 70.1952 264.367 68.1112C266.45 66.0272 269.276 64.8564 272.222 64.8564C272.41 64.8564 272.591 64.7816 272.724 64.6485C272.857 64.5153 272.932 64.3347 272.932 64.1464C272.932 63.9582 272.857 63.7776 272.724 63.6445C272.591 63.5113 272.41 63.4365 272.222 63.4365Z" fill="#3F3D56"/>
<path d="M358.041 303.528C357.649 303.528 352.674 303.21 352.674 302.818L357.331 279.173C357.331 278.984 357.406 278.804 357.539 278.671C357.672 278.537 357.853 278.463 358.041 278.463C358.229 278.463 358.41 278.537 358.543 278.671C358.676 278.804 358.751 278.984 358.751 279.173V302.818C358.751 303.006 358.676 303.187 358.543 303.32C358.41 303.453 358.229 303.528 358.041 303.528Z" fill="#3F3D56"/>
<path d="M411.68 56.9471C411.68 52.5986 409.953 48.4282 406.88 45.3534C403.806 42.2785 399.637 40.551 395.29 40.551H211.851C219.268 40.551 308.387 45.7937 365.164 52.4112C374.63 53.5134 383.51 57.5636 390.549 63.9896C397.589 70.4156 402.431 78.8923 404.392 88.2215C421.085 167.67 418.036 248.581 396.777 330.842C396.777 335.19 395.051 339.361 391.977 342.436C388.903 345.511 384.734 347.238 380.387 347.238H395.29C399.637 347.238 403.806 345.511 406.88 342.436C409.953 339.361 411.68 335.19 411.68 330.842C435.735 237.761 436.475 146.408 411.68 56.9471Z" fill="#E6E6E6"/>
<path d="M404.762 339.148L403.388 338.793C427.655 244.894 427.663 152.894 403.414 65.3451C400.89 60.7673 397.258 56.8958 392.852 54.0847C388.446 51.2736 383.405 49.6127 378.191 49.2539L305.476 44.099L305.576 42.6826L378.292 47.8375C383.756 48.2138 389.038 49.9583 393.652 52.9105C398.266 55.8627 402.064 59.928 404.697 64.7325L404.759 64.8854C417.019 109.1 423.191 154.782 423.104 200.667C423.012 245.816 416.841 292.408 404.762 339.148Z" fill="white"/>
</g>
<defs>
<clipPath id="clip0_5_561">
<rect width="430" height="401" fill="white"/>
</clipPath>
</defs>
</svg>
