<svg width="28" height="35" viewBox="0 0 28 35" fill="none" xmlns="http://www.w3.org/2000/svg">
<path d="M13.1386 0V2.35673C8.39007 2.63377 4.53279 6.25731 3.88261 10.8991C3.51733 10.6652 3.08631 10.5263 2.61876 10.5263C1.33446 10.5263 0.281017 11.5789 0.281017 12.8655C0.281017 13.9474 1.0269 14.8684 2.02848 15.1316L2.25933 17.3392C2.24107 22.0029 2.45074 27.2588 2.08546 32.1272C1.88091 31.5936 1.86338 31.2427 1.75526 30.5994L0.862531 30.7602C1.02325 31.7617 1.22634 32.7339 1.82101 33.6038C3.56847 32.924 4.02872 29.152 4.49626 26.7398L2.96942 25.8918L4.74465 25.3801C4.91268 24.3348 5.02226 23.6769 5.0807 23.0117L3.65614 21.9006L5.13184 21.9152C5.13184 21.6301 5.13184 21.3231 5.12453 20.9722C5.09531 20.0219 4.26249 17.902 3.42236 17.4488L3.18128 15.1316C3.51733 15.0512 3.81686 14.8977 4.07985 14.6857C5.11723 18.8304 8.74804 21.9518 13.1386 22.2076V22.9094C12.4592 23.1506 11.9697 23.8012 11.9697 24.5614C11.9697 25.4094 12.5761 26.1184 13.3797 26.2792C12.4665 26.5424 11.5387 27.6828 11.641 28.1944C12.2474 31.2354 12.7295 34.6711 13.8911 35C15.323 33.5599 15.4691 30.6652 15.754 27.902C15.7905 27.5512 14.9065 26.5278 14.0737 26.2792C14.87 26.1111 15.4764 25.402 15.4764 24.5614C15.4764 23.8012 14.9869 23.1506 14.3075 22.9094V22.2076C18.6981 21.9518 22.3289 18.8304 23.3663 14.6857C23.6512 14.9123 23.9872 15.0804 24.3525 15.1535L24.5936 18.231C23.7461 18.6257 23.0083 19.7368 22.9791 20.5775C22.9352 22.2003 23.0448 23.9693 23.3663 25.7091L25.0611 26.4547L23.5124 26.4328C23.5416 26.5716 23.5708 26.7032 23.6073 26.8421L24.1626 27.4415L23.79 27.5439C24.3087 29.3933 25.0903 31.1257 26.1935 32.5C26.5953 31.7325 26.9094 30.8845 27.1505 29.9854L26.2592 29.8465C26.2154 30.4167 26.1643 30.9868 26.1058 31.5497C25.7405 27.2734 25.7698 22.2515 25.7551 18.1287L25.5141 15.1023C26.4711 14.8026 27.1651 13.9108 27.1651 12.8655C27.1651 11.5789 26.1131 10.5263 24.8274 10.5263C24.3598 10.5263 23.9288 10.6652 23.5635 10.8991C22.9133 6.25731 19.056 2.63377 14.3075 2.35673V0H13.1386ZM13.7231 3.50877C18.5739 3.50877 22.4896 7.4269 22.4896 12.2807C22.4896 17.1345 18.5739 21.0526 13.7231 21.0526C8.87223 21.0526 4.95651 17.1345 4.95651 12.2807C4.95651 7.4269 8.87223 3.50877 13.7231 3.50877ZM13.3724 4.60599C12.8756 4.62866 12.3935 4.69737 11.9259 4.80921C11.6556 5.38231 11.473 5.98392 11.3707 6.59357C10.8593 6.23538 10.3041 5.94225 9.71236 5.72588C9.29595 5.98173 8.90876 6.27924 8.54349 6.60088C9.58817 6.82749 10.5233 7.32456 11.2757 8.01901C11.305 8.79386 11.4657 9.56871 11.7506 10.307C11.0127 10.0219 10.2384 9.86111 9.46398 9.83187C8.76996 9.07895 8.27319 8.14328 8.04672 7.10526C7.71797 7.46345 7.42575 7.85088 7.17006 8.26754C7.38923 8.85965 7.68875 9.41521 8.04672 9.9269C7.43306 10.0292 6.82671 10.212 6.25688 10.4825C6.1473 10.9503 6.07424 11.4327 6.05233 11.9298C6.94359 11.3523 7.95905 11.038 8.98182 11.0015C9.55164 11.5278 10.2091 11.9664 10.9324 12.2807C10.2091 12.595 9.55164 13.0336 8.98182 13.5673C7.95905 13.5234 6.94359 13.2164 6.05233 12.6389C6.07424 13.136 6.1473 13.6111 6.25688 14.0789C6.82671 14.3494 7.43306 14.5322 8.04672 14.6345C7.68875 15.1462 7.38923 15.7018 7.17006 16.2939C7.42575 16.7105 7.71797 17.098 8.04672 17.4561C8.27319 16.4181 8.76996 15.4825 9.46398 14.7295C10.2384 14.7003 11.0127 14.5395 11.7506 14.2544C11.4657 14.9927 11.305 15.7602 11.2757 16.5424C10.5233 17.2368 9.58817 17.7339 8.54349 17.9532C8.90146 18.2822 9.29595 18.5819 9.71236 18.8377C10.3114 18.6184 10.8666 18.326 11.3707 17.9678C11.473 18.5819 11.6556 19.1813 11.9259 19.7515C12.3935 19.8611 12.8683 19.9342 13.3651 19.9561C12.788 19.0643 12.4811 18.0556 12.4373 17.0249C12.9706 16.4547 13.4089 15.7968 13.7231 15.0731C14.0372 15.7968 14.4755 16.4547 15.0015 17.0249C14.965 18.0482 14.6508 19.0643 14.0737 19.9561C14.5705 19.9342 15.0527 19.8611 15.5202 19.7515C15.7905 19.1813 15.9731 18.5819 16.0754 17.9678C16.5868 18.326 17.142 18.6184 17.7338 18.8377C18.1502 18.5819 18.5447 18.2822 18.9026 17.9532C17.8579 17.7339 16.9228 17.2368 16.1704 16.5424C16.1412 15.7675 15.9877 14.9927 15.6955 14.2544C16.4334 14.5468 17.2078 14.7003 17.9821 14.7295C18.6762 15.4825 19.1729 16.4181 19.3994 17.4561C19.7281 17.098 20.0204 16.7105 20.2761 16.2939C20.0569 15.7018 19.7647 15.1462 19.4067 14.6345C20.0204 14.5322 20.6194 14.3494 21.1892 14.0789C21.2988 13.6111 21.3719 13.1287 21.3938 12.6316C20.5025 13.2091 19.4871 13.5234 18.4643 13.5599C17.8945 13.0336 17.237 12.595 16.5137 12.2807C17.237 11.9664 17.8945 11.5278 18.4643 10.9942C19.4871 11.038 20.5025 11.345 21.3938 11.9225C21.3719 11.4254 21.2988 10.9503 21.1892 10.4825C20.6194 10.212 20.0131 10.0292 19.3994 9.9269C19.7574 9.41521 20.0569 8.85965 20.2761 8.26754C20.0204 7.85088 19.7208 7.45614 19.3921 7.09795C19.1729 8.14328 18.6762 9.07895 17.9821 9.83187C17.2005 9.86111 16.4334 10.0219 15.6955 10.307C15.9804 9.56871 16.1412 8.79386 16.1704 8.01901C16.9228 7.32456 17.8579 6.82018 18.9026 6.60088C18.5374 6.27193 18.1502 5.98173 17.7338 5.72588C17.142 5.94225 16.5868 6.23538 16.0754 6.59357C15.9731 5.98392 15.7905 5.38231 15.5202 4.80921C15.0527 4.69737 14.5705 4.62866 14.0737 4.60599C14.6582 5.49781 14.965 6.51316 15.0088 7.53655C14.4755 8.10673 14.0372 8.76462 13.7231 9.4883C13.4089 8.76462 12.9706 8.10673 12.4373 7.53655C12.4811 6.51316 12.788 5.49781 13.3724 4.60599ZM13.7231 10.5263C14.6874 10.5263 15.4764 11.3158 15.4764 12.2807C15.4764 13.2456 14.6874 14.0351 13.7231 14.0351C12.7587 14.0351 11.9697 13.2456 11.9697 12.2807C11.9697 11.3158 12.7587 10.5263 13.7231 10.5263ZM2.61876 11.6959C3.26895 11.6959 3.78764 12.2149 3.78764 12.8655C3.78764 13.5161 3.26895 14.0351 2.61876 14.0351C1.96639 14.0351 1.44989 13.5161 1.44989 12.8655C1.44989 12.2149 1.96639 11.6959 2.61876 11.6959ZM13.7231 11.6959C13.3943 11.6959 13.1386 11.9518 13.1386 12.2807C13.1386 12.6096 13.3943 12.8655 13.7231 12.8655C14.0518 12.8655 14.3075 12.6096 14.3075 12.2807C14.3075 11.9518 14.0518 11.6959 13.7231 11.6959ZM24.8274 11.6959C25.4775 11.6959 25.9962 12.2149 25.9962 12.8655C25.9962 13.5161 25.4775 14.0351 24.8274 14.0351C24.1772 14.0351 23.6585 13.5161 23.6585 12.8655C23.6585 12.2149 24.1772 11.6959 24.8274 11.6959ZM1.43382 17.6681C0.694505 18.0994 0.0735415 18.7866 0.0589306 19.3421C-0.0871786 22.4708 0.00779276 25.9795 0.694506 30.0073L1.74795 30.4167C1.47035 26.1477 1.47765 21.9152 1.43382 17.6681ZM26.5807 18.4211C26.5368 22.1711 26.5441 25.9137 26.2665 29.6857L27.3185 29.3202C27.8737 27.0029 28.0198 24.3933 27.9979 21.7763L26.9313 21.7544L27.9833 21.1404C27.9833 20.7237 27.976 20.307 27.9541 19.8977C27.9395 19.4079 27.3185 18.8012 26.5807 18.4211ZM13.7231 23.9766C14.0518 23.9766 14.3075 24.2325 14.3075 24.5614C14.3075 24.8904 14.0518 25.1462 13.7231 25.1462C13.3943 25.1462 13.1386 24.8904 13.1386 24.5614C13.1386 24.2325 13.3943 23.9766 13.7231 23.9766ZM13.4162 26.2866C13.5185 26.3085 13.6208 26.3158 13.7231 26.3158C13.818 26.3158 13.9057 26.3085 13.9934 26.2939L13.8253 32.9167L13.4162 26.2866Z" fill="#1E1E1E"/>
</svg>
