<svg width="594" height="439" viewBox="0 0 594 439" fill="none" xmlns="http://www.w3.org/2000/svg">
<g clip-path="url(#clip0_1_78)">
<path d="M197.894 426.501C179.762 426.501 161.657 426.219 143.579 425.655C117.747 424.849 91.0366 424.016 66.2099 412.058C48.8425 403.694 33.4611 390.274 21.7288 373.249C13.9887 361.929 8.22446 349.378 4.68116 336.131C2.94781 329.758 1.68997 323.266 0.918005 316.707C-1.19605 298.987 0.301898 281.022 5.32146 263.898C7.75911 255.703 11.0805 247.798 15.2272 240.321C33.3323 207.762 66.3546 185.906 105.827 180.357C106.154 180.321 106.483 180.314 106.81 180.339C106.988 180.347 107.165 180.356 107.345 180.35L107.578 180.285C108.176 180.105 108.787 179.969 109.406 179.878C170.283 172.008 234.639 187.932 295.512 225.929C342.579 255.313 404.956 271.135 486.207 274.301L487.361 274.353C509.979 275.482 531.858 283.58 550.634 297.774C568.981 311.532 582.956 330.304 590.875 351.826C591.833 354.429 592.711 357.139 593.485 359.88C594.952 365.063 593.252 370.301 588.821 374.288V374.293L588.619 374.474C588.132 374.895 587.619 375.298 587.095 375.674L586.479 376.115C581.286 379.829 577.185 382.764 572.277 385.043C568.964 386.565 565.488 387.705 561.916 388.44C542.116 392.632 522.009 396.519 502.153 399.993C463.591 406.745 424.014 412.315 384.52 416.547C322.533 423.181 260.235 426.504 197.894 426.501ZM106.349 181.492C106.228 181.491 106.107 181.498 105.986 181.514C66.8827 187.01 34.1729 208.652 16.2473 240.889C12.1416 248.291 8.85305 256.118 6.43964 264.232C1.46557 281.204 -0.0184196 299.008 2.07722 316.57C2.8424 323.071 4.08919 329.507 5.80732 335.824C9.31593 348.944 15.0243 361.375 22.6897 372.587C34.3071 389.445 49.5313 402.73 66.7165 411.006C91.3204 422.857 117.905 423.686 143.615 424.488C223.989 426.984 304.439 423.943 384.395 415.387C423.864 411.157 463.415 405.591 501.951 398.843C521.794 395.371 541.887 391.488 561.674 387.298C565.159 386.582 568.552 385.47 571.785 383.984C576.595 381.751 580.657 378.845 585.8 375.165L586.416 374.725C586.866 374.402 587.308 374.056 587.732 373.697L587.853 373.587C592.079 369.888 593.723 365.007 592.362 360.197C591.596 357.486 590.727 354.804 589.779 352.228C573.86 308.608 532.679 277.782 487.305 275.519L486.157 275.467C449.043 274.021 416.565 270.014 386.871 263.218C351.425 255.105 320.479 242.892 294.894 226.919C234.253 189.068 170.166 173.202 109.555 181.035C108.991 181.12 108.434 181.245 107.889 181.41L107.47 181.512C107.229 181.525 106.993 181.515 106.757 181.505C106.617 181.499 106.481 181.492 106.349 181.492Z" fill="#F0F0F0"/>
<path d="M588.237 374.026V374.032C587.765 374.441 587.268 374.832 586.755 375.199C578.188 381.333 572.334 385.633 561.795 387.869C541.952 392.07 522.038 395.92 502.052 399.417C463.062 406.245 423.864 411.762 384.458 415.967C304.476 424.542 223.998 427.584 143.597 425.071C116.822 424.236 90.9976 423.349 66.4633 411.532C48.5295 402.895 33.4611 389.246 22.2094 372.917C10.8001 356.362 3.86121 336.771 1.49762 316.638C7.05311 314.214 12.9553 312.678 18.9879 312.086C39.9273 310.091 60.534 317.759 79.5767 326.681C98.6252 335.598 117.329 346.021 137.954 350.135C168.347 356.198 199.721 347.952 228.86 337.396C257.999 326.839 286.683 313.802 317.415 309.816C358.634 304.465 399.993 315.792 440.016 327.008C482.648 338.954 525.281 350.901 567.917 362.851C574.009 364.555 580.33 366.382 585.08 370.56C586.258 371.595 587.317 372.757 588.237 374.026Z" fill="#E6E6E6"/>
<path d="M588.237 374.026V374.032C587.765 374.441 587.268 374.832 586.755 375.199C581.386 379.039 577.085 382.167 572.031 384.513C554.657 386.223 537.26 387.703 519.84 388.954C475.003 392.169 430.077 393.879 385.065 394.084C293.75 394.55 197.743 397.41 117.79 353.059C91.187 338.301 52.6496 368.564 26.2945 352.382C18.6977 347.702 11.6386 342.201 5.24432 335.978C3.51738 329.633 2.26502 323.169 1.49762 316.638C-0.618026 298.998 0.873072 281.111 5.88041 264.065C8.303 255.91 11.6082 248.043 15.7373 240.605C27.9811 244.999 39.723 251.325 50.8989 258.025C71.3947 270.297 91.3244 284.233 114.149 291.259C147.793 301.617 184.192 295.922 218.332 287.355C252.472 278.788 286.385 267.373 321.57 266.411C368.759 265.121 414.18 282.692 458.107 299.983C502.175 317.333 546.248 334.68 590.327 352.026C591.295 354.658 592.161 357.328 592.924 360.038C594.482 365.547 592.223 370.537 588.237 374.026Z" fill="#F2F2F2"/>
<path d="M158.576 149.993C151.939 145.519 152.589 135.729 159.607 131.882C159.75 131.803 159.89 131.723 160.028 131.639C160.379 129.954 160.731 128.27 161.083 126.585C163.153 128.736 167.225 128.33 168.83 125.813C163.233 113.875 155.873 102.845 146.997 93.095C145.062 90.9591 143.976 88.1886 143.945 85.3068C143.914 82.425 144.939 79.6316 146.827 77.4543C146.861 77.4147 146.895 77.3749 146.928 77.3347C151.94 75.642 156.687 73.2454 161.024 70.2168C146.149 46.3175 117.783 27.3311 111.04 -3.05176e-05C90.7565 21.7814 88.4795 29.4527 68.1957 51.2341C68.1957 51.2341 48.9892 68.5645 44.8437 77.8781C45.8623 78.948 54.9815 81.5154 55.3321 83.6191C62.2867 84.1766 74.3351 76.5541 74.3351 76.5541C74.3351 76.5541 48.0374 104.589 40.053 121.858C39.3341 123.413 38.6512 125.188 39.2535 126.792C39.7344 128.072 41.4596 128.811 42.5706 128.302C41.2434 129.582 40.1777 131.108 39.4329 132.795C41.7498 134.274 44.4979 134.929 47.2331 134.654C49.9682 134.378 52.5306 133.189 54.5059 131.277C53.3938 133.354 52.2818 135.432 51.1697 137.51L51.1716 137.515C52.6741 138.005 54.0224 138.88 55.0834 140.051C56.1444 141.223 56.8814 142.651 57.2215 144.194C57.5617 145.738 57.4932 147.344 57.0228 148.852C56.5525 150.361 55.6966 151.722 54.5397 152.798C47.6385 159.217 41.3327 165.963 39.0221 170.405C36.8484 174.585 59.1673 179.623 64.1874 179.416C69.2074 179.21 73.8998 177.004 78.4338 174.839C78.2128 176.906 78.6083 178.993 79.5704 180.836C82.0534 181.439 84.6318 181.539 87.1542 181.131C89.6766 180.723 92.092 179.816 94.2587 178.462C94.0586 182.596 99.2741 184.879 102.894 183.708C101.087 212.297 102.409 252.443 104.145 294.118H108.453V185.356C109.599 185.937 110.825 186.345 112.091 186.566C120.905 188.13 131.54 189.081 137.275 182.209C143.876 188.864 155.972 188.738 162.534 182.106C161.888 183.25 162.877 185.176 164.339 185.479C166.063 185.836 167.739 184.812 169.202 183.834C175.826 179.406 182.449 174.978 189.073 170.55C180.899 165.04 169.288 157.213 158.576 149.993Z" fill="#E6E6E6"/>
<path d="M357.406 136.688C368.894 136.688 378.206 127.376 378.206 115.89C378.206 104.403 368.894 95.0912 357.406 95.0912C345.919 95.0912 336.607 104.403 336.607 115.89C336.607 127.376 345.919 136.688 357.406 136.688Z" fill="#F2F2F2"/>
<path d="M403.96 106.042C402.757 102.013 399.359 99.3824 395.252 98.8054C395.207 98.799 395.164 98.8074 395.119 98.8045C395.061 98.7867 395.001 98.7731 394.941 98.7636C389.124 98.0547 383.238 99.3358 378.241 102.399C373.427 105.404 367.818 106.763 362.147 106.984C362.113 106.985 362.08 106.987 362.046 106.989C359.939 107.129 357.925 107.916 356.28 109.241C354.635 110.567 353.439 112.367 352.854 114.397C352.792 114.646 352.81 114.908 352.907 115.145C353.004 115.382 353.173 115.582 353.391 115.717C354.019 116.249 354.764 116.627 355.564 116.82C357.292 117.186 359.025 117.521 360.765 117.826C364.16 118.42 367.572 118.9 371.002 119.266C377.965 120.012 384.971 120.277 391.971 120.059C394.302 119.986 396.55 119.909 398.686 118.88C400.24 118.113 401.568 116.954 402.538 115.519C403.453 114.139 404.054 112.575 404.3 110.938C404.546 109.301 404.43 107.63 403.96 106.042Z" fill="#E6E6E6"/>
<path d="M360.73 133.773C359.527 129.744 356.129 127.114 352.022 126.537C351.977 126.53 351.934 126.539 351.889 126.536C351.831 126.518 351.771 126.504 351.711 126.495C345.894 125.786 340.008 127.067 335.011 130.13C330.197 133.135 324.588 134.495 318.917 134.715C318.884 134.717 318.85 134.718 318.817 134.72C316.709 134.86 314.695 135.647 313.05 136.972C311.406 138.298 310.209 140.099 309.624 142.129C309.562 142.377 309.581 142.639 309.677 142.876C309.774 143.113 309.943 143.314 310.161 143.448C310.79 143.98 311.534 144.358 312.334 144.551C314.062 144.917 315.795 145.252 317.535 145.557C320.93 146.151 324.342 146.631 327.773 146.998C334.736 147.744 341.742 148.008 348.741 147.79C351.072 147.717 353.32 147.64 355.456 146.611C357.01 145.844 358.338 144.685 359.309 143.25C360.223 141.87 360.825 140.306 361.07 138.669C361.316 137.032 361.2 135.361 360.73 133.773Z" fill="#E6E6E6"/>
<path d="M536.745 220.604C530.108 216.13 530.758 206.341 537.776 202.494C537.919 202.415 538.059 202.334 538.196 202.251C538.548 200.566 538.9 198.882 539.252 197.197C541.322 199.348 545.394 198.942 546.999 196.425C541.402 184.486 534.042 173.457 525.166 163.707C523.231 161.571 522.145 158.8 522.114 155.919C522.083 153.037 523.108 150.243 524.996 148.066C525.03 148.026 525.064 147.987 525.097 147.946C530.109 146.254 534.856 143.857 539.193 140.829C524.318 116.929 495.952 97.9428 489.209 70.6117C468.925 92.3932 466.648 100.064 446.365 121.846C446.365 121.846 427.158 139.176 423.013 148.49C424.031 149.56 433.15 152.127 433.501 154.231C440.456 154.788 452.504 147.166 452.504 147.166C452.504 147.166 426.206 175.201 418.222 192.469C417.503 194.024 416.82 195.8 417.422 197.404C417.903 198.684 419.628 199.423 420.74 198.914C419.412 200.194 418.347 201.72 417.602 203.407C419.919 204.886 422.667 205.541 425.402 205.265C428.137 204.99 430.7 203.8 432.675 201.889C431.563 203.966 430.451 206.044 429.339 208.121L429.341 208.126C430.843 208.617 432.191 209.492 433.252 210.663C434.313 211.835 435.05 213.263 435.39 214.806C435.731 216.35 435.662 217.955 435.192 219.464C434.721 220.973 433.866 222.333 432.709 223.41C425.807 229.828 419.502 236.574 417.191 241.017C415.017 245.197 437.336 250.235 442.356 250.028C447.376 249.821 452.069 247.616 456.603 245.451C456.382 247.518 456.777 249.605 457.739 251.448C460.222 252.05 462.801 252.151 465.323 251.743C467.845 251.335 470.261 250.428 472.428 249.073C472.228 253.208 477.443 255.491 481.063 254.32C479.256 282.909 480.578 323.055 482.314 364.73H486.622V255.968C487.768 256.549 488.994 256.957 490.26 257.178C499.074 258.742 509.709 259.693 515.444 252.821C522.045 259.476 534.141 259.35 540.703 252.718C540.057 253.862 541.046 255.787 542.508 256.091C544.231 256.448 545.908 255.424 547.371 254.446C553.995 250.018 560.618 245.59 567.242 241.162C559.068 235.652 547.457 227.825 536.745 220.604Z" fill="#E6E6E6"/>
<path d="M36.7491 331.477C37.181 331.497 37.6085 331.383 37.9738 331.152C38.3391 330.921 38.6245 330.583 38.7913 330.184C38.9581 329.785 38.9983 329.345 38.9063 328.922C38.8144 328.5 38.5948 328.116 38.2773 327.822C38.2241 327.611 38.186 327.459 38.1328 327.248C38.1518 327.202 38.171 327.156 38.1902 327.11C38.6253 326.082 39.3544 325.206 40.2859 324.591C41.2174 323.977 42.3098 323.651 43.4259 323.655C44.5419 323.659 45.6318 323.993 46.5587 324.615C47.4856 325.236 48.2082 326.118 48.6357 327.149C50.3441 331.263 52.5192 335.385 53.0547 339.735C53.2906 341.658 53.1911 343.607 52.7607 345.496C56.7732 336.744 58.8569 327.231 58.8703 317.602C58.8711 315.186 58.7369 312.772 58.4682 310.371C58.2461 308.402 57.938 306.448 57.5439 304.508C55.3933 293.979 50.7757 284.111 44.0705 275.713C40.8252 273.943 38.2006 271.22 36.5505 267.912C35.9528 266.723 35.5303 265.453 35.2962 264.143C35.6623 264.191 36.0344 264.221 36.4005 264.245C36.5145 264.251 36.6345 264.257 36.7486 264.263L36.7916 264.265C37.1939 264.283 37.5929 264.184 37.9405 263.981C38.2881 263.777 38.5695 263.478 38.7508 263.118C38.9321 262.759 39.0056 262.354 38.9624 261.954C38.9192 261.553 38.7612 261.174 38.5074 260.861C38.3493 260.667 38.1912 260.472 38.0329 260.278C37.7928 259.978 37.5468 259.684 37.3067 259.384C37.279 259.355 37.253 259.325 37.2287 259.294C36.9526 258.952 36.6766 258.616 36.4005 258.274C36.9044 257.491 37.5822 256.836 38.381 256.359C41.1477 254.739 44.9647 255.861 46.9632 258.364C48.9678 260.866 49.3458 264.377 48.6497 267.504C47.9651 270.164 46.8326 272.689 45.3008 274.969C45.4508 275.161 45.6069 275.347 45.7569 275.539C48.4997 279.066 50.8901 282.853 52.8941 286.846C52.4068 282.373 52.9884 277.848 54.5912 273.643C56.2156 269.724 59.2603 266.424 61.9416 263.037C65.1622 258.968 71.7663 260.743 72.3337 265.901C72.3392 265.951 72.3446 266.001 72.3498 266.051C71.9515 266.276 71.5617 266.514 71.1803 266.767C70.7011 267.087 70.3298 267.544 70.115 268.079C69.9003 268.614 69.8521 269.201 69.9767 269.763C70.1014 270.326 70.3931 270.838 70.8136 271.232C71.2341 271.626 71.7639 271.884 72.3335 271.972L72.3918 271.981C72.2499 273.416 71.9991 274.838 71.6416 276.235C70.6056 280.136 68.775 283.781 66.2643 286.941C63.7537 290.101 60.6174 292.708 57.0518 294.599C56.8177 294.719 56.5897 294.839 56.3556 294.953C57.4296 297.98 58.288 301.078 58.9243 304.225C59.4935 307.001 59.8904 309.809 60.1126 312.633C60.3847 316.192 60.3686 319.766 60.0645 323.322L60.0826 323.196C60.8508 319.242 62.9601 315.674 66.0541 313.095C70.6496 309.321 77.1421 307.93 82.0997 304.896C82.6266 304.558 83.2393 304.377 83.8654 304.376C84.4915 304.374 85.105 304.552 85.6335 304.888C86.1621 305.223 86.5836 305.703 86.8483 306.271C87.1131 306.838 87.2101 307.469 87.1278 308.09C87.1212 308.134 87.1144 308.178 87.1075 308.222C86.3685 308.523 85.6489 308.87 84.953 309.26C84.5547 309.485 84.1649 309.724 83.7835 309.976C83.3043 310.296 82.933 310.753 82.7183 311.288C82.5035 311.823 82.4553 312.41 82.5799 312.973C82.7046 313.535 82.9963 314.047 83.4168 314.441C83.8374 314.835 84.3671 315.093 84.9367 315.181L84.995 315.19C85.037 315.196 85.0731 315.202 85.115 315.208C83.8522 318.223 82.0799 320.998 79.8757 323.412C77.1527 326.333 73.8616 328.668 70.2042 330.273C66.5467 331.877 62.6001 332.718 58.6062 332.744H58.6002C57.516 337.455 55.9451 342.04 53.9129 346.426H37.1686C37.1086 346.24 37.0546 346.048 37.0006 345.862C38.5505 345.96 40.1065 345.867 41.6338 345.586C40.3915 344.062 39.1492 342.526 37.9068 341.001C37.8791 340.973 37.8531 340.943 37.8288 340.911C37.1987 340.131 36.5625 339.357 35.9323 338.577L35.932 338.576C35.8984 336.184 36.1728 333.799 36.7485 331.477L36.7491 331.477Z" fill="#E6E6E6"/>
<path d="M535.722 347.817C536.154 347.837 536.581 347.723 536.947 347.492C537.312 347.261 537.597 346.923 537.764 346.524C537.931 346.125 537.971 345.685 537.879 345.262C537.787 344.84 537.568 344.456 537.25 344.162C537.197 343.951 537.159 343.799 537.106 343.588C537.125 343.542 537.144 343.496 537.163 343.45C537.598 342.422 538.327 341.546 539.259 340.931C540.19 340.317 541.283 339.991 542.399 339.995C543.515 339.999 544.605 340.333 545.532 340.955C546.459 341.576 547.181 342.458 547.609 343.489C549.317 347.603 551.492 351.725 552.028 356.075C552.264 357.998 552.164 359.947 551.734 361.836C555.746 353.084 557.83 343.571 557.843 333.942C557.844 331.526 557.71 329.112 557.441 326.711C557.219 324.742 556.911 322.788 556.517 320.847C554.366 310.319 549.749 300.451 543.043 292.053C539.798 290.283 537.174 287.56 535.523 284.252C534.926 283.062 534.503 281.793 534.269 280.483C534.635 280.531 535.007 280.561 535.373 280.585C535.487 280.591 535.607 280.597 535.722 280.603L535.765 280.605C536.167 280.623 536.566 280.524 536.913 280.321C537.261 280.117 537.542 279.818 537.724 279.458C537.905 279.099 537.979 278.694 537.935 278.294C537.892 277.893 537.734 277.514 537.48 277.201C537.322 277.007 537.164 276.812 537.006 276.618C536.766 276.318 536.52 276.024 536.28 275.724C536.252 275.695 536.226 275.665 536.202 275.634C535.926 275.292 535.65 274.956 535.373 274.613C535.877 273.831 536.555 273.176 537.354 272.699C540.121 271.079 543.938 272.201 545.936 274.704C547.941 277.206 548.319 280.717 547.623 283.844C546.938 286.504 545.806 289.029 544.274 291.309C544.424 291.501 544.58 291.687 544.73 291.879C547.473 295.406 549.863 299.193 551.867 303.186C551.38 298.712 551.961 294.187 553.564 289.983C555.189 286.064 558.233 282.764 560.915 279.376C564.135 275.308 570.739 277.083 571.307 282.241C571.312 282.291 571.318 282.341 571.323 282.391C570.925 282.616 570.535 282.854 570.153 283.107C569.674 283.427 569.303 283.884 569.088 284.419C568.873 284.954 568.825 285.541 568.95 286.103C569.074 286.666 569.366 287.178 569.787 287.572C570.207 287.966 570.737 288.224 571.306 288.311L571.365 288.32C571.223 289.756 570.972 291.178 570.615 292.575C569.579 296.476 567.748 300.121 565.237 303.281C562.727 306.441 559.59 309.048 556.025 310.939C555.791 311.059 555.563 311.179 555.329 311.293C557.342 316.999 558.605 322.942 559.086 328.973C559.358 332.531 559.342 336.106 559.038 339.661L559.056 339.535C559.824 335.582 561.933 332.014 565.027 329.435C569.623 325.66 576.115 324.27 581.073 321.236C581.6 320.898 582.212 320.717 582.838 320.716C583.465 320.714 584.078 320.892 584.607 321.228C585.135 321.563 585.557 322.043 585.821 322.61C586.086 323.178 586.183 323.809 586.101 324.43C586.094 324.474 586.087 324.518 586.081 324.562C585.342 324.863 584.622 325.21 583.926 325.6C583.528 325.825 583.138 326.064 582.757 326.316C582.277 326.636 581.906 327.093 581.691 327.628C581.477 328.163 581.428 328.75 581.553 329.313C581.678 329.875 581.969 330.387 582.39 330.781C582.81 331.175 583.34 331.433 583.91 331.521L583.968 331.53C584.01 331.536 584.046 331.542 584.088 331.548C582.825 334.563 581.053 337.338 578.849 339.751C576.126 342.673 572.835 345.008 569.177 346.613C565.52 348.217 561.573 349.058 557.579 349.083H557.573C556.489 353.794 554.918 358.38 552.886 362.766H536.142C536.082 362.58 536.028 362.388 535.974 362.202C537.523 362.3 539.079 362.207 540.607 361.926C539.364 360.402 538.122 358.865 536.88 357.341C536.852 357.313 536.826 357.283 536.802 357.251C536.172 356.471 535.535 355.697 534.905 354.917L534.905 354.916C534.871 352.524 535.146 350.138 535.722 347.817Z" fill="#E6E6E6"/>
<path d="M336.716 299.381C337.148 299.401 337.576 299.287 337.941 299.056C338.306 298.825 338.592 298.487 338.759 298.088C338.925 297.689 338.966 297.248 338.874 296.826C338.782 296.404 338.562 296.02 338.245 295.726C338.191 295.515 338.153 295.363 338.1 295.152C338.119 295.106 338.138 295.06 338.158 295.014C338.593 293.986 339.322 293.11 340.253 292.495C341.185 291.881 342.277 291.555 343.393 291.559C344.509 291.563 345.599 291.897 346.526 292.519C347.453 293.14 348.176 294.022 348.603 295.053C350.311 299.167 352.486 303.289 353.022 307.639C353.258 309.562 353.158 311.511 352.728 313.4C356.741 304.648 358.824 295.135 358.838 285.506C358.838 283.09 358.704 280.676 358.436 278.275C358.213 276.306 357.905 274.352 357.511 272.411C355.361 261.883 350.743 252.015 344.038 243.617C340.792 241.846 338.168 239.124 336.518 235.815C335.92 234.626 335.498 233.357 335.264 232.047C335.63 232.095 336.002 232.125 336.368 232.149C336.482 232.155 336.602 232.161 336.716 232.167L336.759 232.169C337.161 232.187 337.56 232.088 337.908 231.885C338.255 231.681 338.537 231.382 338.718 231.022C338.899 230.662 338.973 230.258 338.93 229.858C338.887 229.457 338.729 229.078 338.475 228.765C338.317 228.571 338.159 228.376 338 228.182C337.76 227.882 337.514 227.588 337.274 227.288C337.246 227.259 337.22 227.229 337.196 227.198C336.92 226.855 336.644 226.519 336.368 226.177C336.872 225.395 337.55 224.74 338.348 224.263C341.115 222.643 344.932 223.765 346.931 226.267C348.935 228.77 349.313 232.281 348.617 235.407C347.932 238.068 346.8 240.592 345.268 242.873C345.418 243.065 345.574 243.251 345.724 243.443C348.467 246.97 350.858 250.757 352.861 254.75C352.374 250.276 352.956 245.751 354.559 241.547C356.183 237.628 359.228 234.328 361.909 230.94C365.13 226.871 371.734 228.647 372.301 233.805C372.307 233.855 372.312 233.905 372.317 233.955C371.919 234.18 371.529 234.418 371.148 234.67C370.668 234.991 370.297 235.448 370.082 235.983C369.868 236.517 369.819 237.105 369.944 237.667C370.069 238.23 370.36 238.742 370.781 239.136C371.202 239.53 371.731 239.787 372.301 239.875L372.359 239.884C372.217 241.32 371.966 242.742 371.609 244.139C370.573 248.04 368.742 251.685 366.232 254.845C363.721 258.005 360.585 260.612 357.019 262.503C356.785 262.623 356.557 262.743 356.323 262.857C358.336 268.563 359.599 274.506 360.08 280.537C360.352 284.095 360.336 287.67 360.032 291.225L360.05 291.099C360.818 287.145 362.927 283.578 366.021 280.999C370.617 277.224 377.109 275.834 382.067 272.8C382.594 272.462 383.207 272.281 383.833 272.28C384.459 272.278 385.072 272.456 385.601 272.791C386.129 273.127 386.551 273.607 386.816 274.174C387.08 274.742 387.177 275.373 387.095 275.994C387.088 276.038 387.082 276.082 387.075 276.126C386.336 276.427 385.616 276.774 384.92 277.164C384.522 277.389 384.132 277.627 383.751 277.88C383.272 278.2 382.9 278.657 382.686 279.192C382.471 279.727 382.423 280.314 382.547 280.876C382.672 281.439 382.964 281.951 383.384 282.345C383.805 282.739 384.334 282.997 384.904 283.085L384.962 283.093C385.004 283.1 385.04 283.106 385.082 283.112C383.82 286.127 382.047 288.902 379.843 291.315C377.12 294.237 373.829 296.572 370.171 298.177C366.514 299.781 362.567 300.622 358.574 300.647H358.567C357.483 305.358 355.912 309.944 353.88 314.33H337.136C337.076 314.144 337.022 313.952 336.968 313.766C338.518 313.864 340.074 313.771 341.601 313.49C340.359 311.966 339.117 310.429 337.874 308.905C337.846 308.877 337.82 308.847 337.796 308.815C337.166 308.035 336.53 307.261 335.9 306.481L335.899 306.48C335.866 304.088 336.14 301.702 336.716 299.381L336.716 299.381Z" fill="#E6E6E6"/>
<path d="M230.322 426.615L237.329 424.531L232.694 395.89L222.352 398.965L230.322 426.615Z" fill="#FFB6B6"/>
<path d="M187.349 415.31C187.776 415.681 188.204 416.048 188.636 416.416C189.495 417.15 190.366 417.877 191.238 418.593C191.677 418.952 192.12 419.312 192.56 419.666L192.557 419.68L192.585 419.689L192.594 419.696L193.302 419.994L194.802 417.368L195.494 416.158L196.471 414.444L198.263 411.31L207.694 394.805L197.759 390.618L197.121 392.14L197.116 392.139L196.8 392.893L190.868 406.971L189.656 409.849L189.618 409.936L188.89 411.655L188.261 413.144L187.561 414.809L187.349 415.31Z" fill="#FFB6B6"/>
<path d="M135.439 343.881C135.928 345.038 136.432 346.191 136.942 347.336C137.889 349.468 138.875 351.576 139.898 353.66C139.897 353.665 139.902 353.666 139.906 353.671C140.564 354.507 141.316 355.263 142.149 355.924C142.182 355.959 142.222 355.985 142.257 356.015C142.871 356.494 143.542 356.895 144.255 357.21C144.512 357.319 144.775 357.429 145.032 357.538C145.962 357.921 146.888 358.269 147.813 358.592C149.459 359.162 151.102 359.644 152.743 360.04C152.874 360.075 153.007 360.106 153.139 360.137C159.906 361.724 166.699 361.971 173.865 361.747C177.404 361.641 181.034 361.416 184.794 361.183C186.023 361.103 187.256 361.028 188.503 360.956C188.597 360.952 188.696 360.943 188.795 360.939C190.577 360.834 192.388 360.738 194.24 360.654C196.572 360.547 198.973 360.466 201.462 360.424L200.749 363.808C200.19 366.409 199.235 368.909 197.917 371.221C196.405 374.081 195.208 376.343 196.146 381.597L196.597 384.14C195.975 385.269 195.624 386.527 195.571 387.815C195.518 389.102 195.764 390.384 196.289 391.561L196.417 391.841L186.692 408.304L186.062 409.372L189.617 409.935L193.989 410.632L201.4 411.806L215.492 392.047L216.166 391.104L216.174 391.052L221.599 349.651C221.642 349.285 221.672 348.912 221.681 348.541C221.748 346.857 221.479 345.177 220.89 343.598C220.3 342.02 219.402 340.574 218.248 339.346C217.143 338.161 215.814 337.208 214.338 336.541C212.861 335.875 211.267 335.508 209.648 335.463L205.913 335.357L198.281 335.139L192.905 334.989L192.798 334.987L176.945 334.536L176.55 329.814L176.356 329.705L170.195 326.272L148.888 314.399L148.834 314.37L147.432 313.589L147.21 313.848C147.143 313.926 147.077 314.004 147.016 314.082C145.127 316.486 143.49 319.076 142.128 321.812C139.859 326.275 137.847 330.864 136.101 335.556C136.024 335.759 135.956 335.945 135.895 336.112L135.872 336.162C135.845 336.241 135.827 336.292 135.82 336.306C134.954 338.395 134.898 341.103 135.439 343.881Z" fill="#2F2E41"/>
<path d="M136.891 328.537C137.011 328.242 137.151 327.946 137.295 327.66C138.416 325.497 139.655 323.398 141.008 321.372C142.531 319.063 144.307 316.613 146.376 313.983C147.377 312.71 148.446 311.39 149.583 310.023C150.153 309.339 150.742 308.642 151.351 307.935C151.376 307.901 151.402 307.87 151.43 307.839L151.605 307.631L173.512 314.171L173.501 317.171L175.09 321.421L174.983 321.546C174.988 321.542 174.987 321.547 174.983 321.546V320.962L175.566 321.546L181.214 328.525L181.253 328.526L193.875 328.882L206.882 329.25L213.869 329.449C215.488 329.494 217.082 329.86 218.559 330.527C220.036 331.193 221.365 332.147 222.469 333.332C223.623 334.56 224.521 336.006 225.11 337.585C225.7 339.163 225.969 340.843 225.902 342.527C225.892 342.869 225.867 343.218 225.827 343.56L229.862 359.887C232.277 369.653 233.205 379.726 232.613 389.768L234.951 405.66L234.267 405.616L224.081 404.959L221.391 404.788L216.904 395.343C216.393 394.266 215.92 393.166 215.493 392.049C214.789 390.224 214.202 388.355 213.736 386.455L205.869 354.41C204.866 354.423 203.875 354.43 202.894 354.429C198.354 354.446 194.013 354.359 189.87 354.167C176.397 353.548 164.916 351.847 154.909 348.978C152.098 348.174 149.401 347.276 146.817 346.284C145.868 345.922 144.935 345.547 144.018 345.159C143.801 345.07 143.59 344.983 143.379 344.891C141.482 344.067 139.822 342.782 138.551 341.151C137.28 339.521 136.438 337.598 136.102 335.558C135.691 333.19 135.964 330.755 136.891 328.537Z" fill="#2F2E41"/>
<path d="M228.946 421.84L236.528 419.578L237.717 419.222L238.796 423.836L250.691 428.501C251.28 428.731 251.779 429.143 252.116 429.677C252.453 430.211 252.611 430.839 252.566 431.469C252.521 432.099 252.276 432.698 251.866 433.179C251.456 433.66 250.903 433.997 250.288 434.141L237.468 437.147L234.19 433.102L234.396 437.867L229.568 439L227.103 422.391L228.946 421.84Z" fill="#2F2E41"/>
<path d="M186.692 408.305L186.062 409.372L186.512 409.443L186.692 408.305Z" fill="#2F2E41"/>
<path d="M188.928 410.075L195.907 413.803L197.003 414.387L194.523 418.425L199.693 430.108C199.949 430.686 200.013 431.33 199.877 431.947C199.741 432.563 199.412 433.12 198.936 433.536C198.461 433.952 197.865 434.206 197.236 434.259C196.606 434.312 195.976 434.163 195.438 433.832L184.213 426.948L184.73 421.767L181.524 425.299L177.295 422.706L187.23 409.17L188.928 410.075Z" fill="#2F2E41"/>
<path d="M239.361 197.559C239.429 198.332 239.325 199.111 239.059 199.84C238.793 200.569 238.37 201.231 237.82 201.779C237.27 202.327 236.607 202.748 235.877 203.012C235.147 203.276 234.368 203.376 233.594 203.307L225.832 220.506L220.591 212.218L228.766 197.156C228.969 195.865 229.639 194.693 230.648 193.863C231.657 193.033 232.936 192.602 234.242 192.651C235.549 192.701 236.791 193.228 237.734 194.132C238.678 195.037 239.257 196.256 239.361 197.559Z" fill="#FFB6B6"/>
<path d="M219.617 248.724L184.053 275.934C181.232 278.088 177.671 279.035 174.153 278.567C170.634 278.099 167.445 276.254 165.285 273.438C164.091 271.877 163.255 270.073 162.837 268.152C162.419 266.232 162.428 264.244 162.865 262.328C163.302 260.412 164.155 258.616 165.364 257.066C166.573 255.517 168.108 254.253 169.861 253.364L205.315 235.377L221.176 204.479L231.826 207.643L219.617 248.724Z" fill="#7971FF"/>
<path d="M143.876 281.049L143.155 307.452C133.232 324.215 132.104 332.355 134.85 336.694L175.65 321.792L176.337 320.15L178.468 308.353L182.33 296.18C183.01 294.908 192.244 287.094 183.588 272.272L166.175 248.815L152.222 248.016C149.922 253.92 154.071 257.14 149.927 258.502C140.556 267.091 141.932 268.489 143.876 281.049Z" fill="#7971FF"/>
<path d="M116.128 355.174C115.812 354.465 115.655 353.695 115.669 352.919C115.683 352.143 115.866 351.379 116.207 350.682C116.548 349.984 117.037 349.37 117.641 348.882C118.245 348.394 118.949 348.045 119.702 347.858L121.423 329.067L129.083 335.189L126.274 352.095C126.504 353.382 126.253 354.708 125.57 355.822C124.887 356.936 123.819 357.761 122.569 358.141C121.318 358.52 119.972 358.428 118.784 357.881C117.597 357.334 116.652 356.371 116.128 355.174Z" fill="#FFB6B6"/>
<path d="M118.084 300.366L142.814 263.036C144.778 260.079 147.834 258.022 151.313 257.316C154.791 256.609 158.408 257.312 161.369 259.269C163.007 260.354 164.387 261.787 165.409 263.465C166.431 265.143 167.071 267.026 167.284 268.979C167.497 270.933 167.277 272.909 166.64 274.768C166.003 276.627 164.965 278.323 163.599 279.736L135.96 308.312L131.057 342.696L119.957 343.182L118.084 300.366Z" fill="#7971FF"/>
<path d="M170.497 215.982C175.43 225.706 172.207 236.968 163.053 242.891C153.154 249.295 140.301 247.893 136.144 235.447C131.514 221.588 135.317 215.642 143.587 208.539C153.279 200.215 165.166 205.477 170.497 215.982Z" fill="#2F2E41"/>
<path d="M146.212 237.642C148.724 240.933 152.439 243.092 156.541 243.646C160.644 244.199 164.798 243.101 168.092 240.593C171.385 238.086 173.548 234.373 174.106 230.271C174.664 226.17 173.571 222.014 171.066 218.718L170.931 218.54C168.372 215.338 164.657 213.27 160.588 212.782C156.518 212.293 152.419 213.424 149.176 215.931C145.933 218.437 143.805 222.118 143.251 226.179C142.697 230.24 143.762 234.356 146.216 237.639L146.212 237.642Z" fill="#FFB6B6"/>
<path d="M175.277 214.408C172.739 216.823 169.645 218.577 166.268 219.513C165.592 218.73 164.789 218.065 163.894 217.545C164.323 218.437 164.616 219.387 164.765 220.364C163.259 223.489 157.109 225.736 151.23 228.033L143.444 214.293L153.75 208.453C162.031 202.728 171.78 205.172 175.277 214.408Z" fill="#2F2E41"/>
<path d="M137.571 208.556C136.169 207.908 134.351 208.308 133.033 209.219C131.778 210.173 130.764 211.406 130.071 212.822C128.81 215.112 127.904 217.58 127.385 220.142C126.94 222.358 127.015 225.038 129.004 226.194C130.663 227.159 133.036 226.552 134.561 225.264C136.086 223.976 136.945 222.165 137.689 220.398C138.433 218.63 139.137 216.798 140.46 215.33L139.086 215.971C139.52 214.653 139.722 213.269 139.684 211.882C139.652 211.191 139.441 210.521 139.07 209.938C138.699 209.354 138.183 208.878 137.571 208.556Z" fill="#2F2E41"/>
<path d="M155.396 210.357L144.339 216.622C141.35 218.316 139.155 221.128 138.239 224.44C137.323 227.752 137.76 231.292 139.454 234.281C141.922 238.635 145.924 241.913 150.68 243.473C155.435 245.034 160.602 244.765 165.17 242.72L155.066 233.802L168.772 240.785L171.698 239.126C156.999 236.454 154.164 224.924 155.396 210.357Z" fill="#2F2E41"/>
</g>
<defs>
<clipPath id="clip0_1_78">
<rect width="594" height="439" fill="white"/>
</clipPath>
</defs>
</svg>
